PathFileType	4	(X/Y/Z)	/home/nbianco/projects/addbio/data/HamnerRunning2013/Processed/subject04//results/MarkerData/run300.trc
DataRate	CameraRate	NumFrames	NumMarkers	Units	OrigDataRate	OrigDataStartFrame	OrigNumFrames
100	100	10	42	m	100	56	225
Frame#	Time	C7			CLAV			LACR			LASI			LCAL			LFAradius			LFAsuperior			LFAulna			LLEL			LMEL			LMT5			LPSI			LTB1			LTB2			LTB3			LTH1			LTH2			LTH3			LTOE			LUA1			LUA2			LUA3			RACR			RASI			RCAL			RFAradius			RFAsuperior			RFAulna			RLEL			RMEL			RMT5			RPSI			RTB1			RTB2			RTB3			RTH1			RTH2			RTH3			RTOE			RUA1			RUA2			RUA3		
		X1	Y1	Z1	X2	Y2	Z2	X3	Y3	Z3	X4	Y4	Z4	X5	Y5	Z5	X6	Y6	Z6	X7	Y7	Z7	X8	Y8	Z8	X9	Y9	Z9	X10	Y10	Z10	X11	Y11	Z11	X12	Y12	Z12	X13	Y13	Z13	X14	Y14	Z14	X15	Y15	Z15	X16	Y16	Z16	X17	Y17	Z17	X18	Y18	Z18	X19	Y19	Z19	X20	Y20	Z20	X21	Y21	Z21	X22	Y22	Z22	X23	Y23	Z23	X24	Y24	Z24	X25	Y25	Z25	X26	Y26	Z26	X27	Y27	Z27	X28	Y28	Z28	X29	Y29	Z29	X30	Y30	Z30	X31	Y31	Z31	X32	Y32	Z32	X33	Y33	Z33	X34	Y34	Z34	X35	Y35	Z35	X36	Y36	Z36	X37	Y37	Z37	X38	Y38	Z38	X39	Y39	Z39	X40	Y40	Z40	X41	Y41	Z41	X42	Y42	Z42

57	1.17	1.22182	1.51387	-0.340576	1.32165	1.41579	-0.287241	1.31157	1.47587	-0.499946	1.25934	0.976984	-0.429695	0.924895	0.120097	-0.339198	1.42055	1.17691	-0.48277	1.2756	1.1566	-0.583685	1.42374	1.10894	-0.507477	1.19056	1.17031	-0.605163	1.15258	1.15725	-0.519576	1.1348	0.0561481	-0.392197	1.08283	1.03256	-0.36583	1.18254	0.309148	-0.370928	1.12766	0.266373	-0.414394	1.09909	0.198334	-0.353097	1.19534	0.835726	-0.501156	1.26763	0.710116	-0.480031	1.20407	0.587424	-0.463434	1.16144	0.068731	-0.302829	1.25814	1.35444	-0.573696	1.17219	1.30877	-0.564092	1.20769	1.23549	-0.589951	1.24526	1.47577	-0.156499	1.22904	0.97016	-0.17579	0.913414	0.427209	-0.262934	1.22275	1.11018	-0.136926	1.08603	1.19861	-0.0796765	1.17334	1.0619	-0.11608	1.00962	1.24662	-0.0766288	0.989881	1.25244	-0.167466	0.981671	0.220452	-0.185463	1.06923	1.02388	-0.274578	1.22932	0.403597	-0.2406	1.1183	0.408922	-0.19921	1.05946	0.360101	-0.259248	1.2191	0.80032	-0.135187	1.2993	0.726065	-0.14467	1.29583	0.588008	-0.163858	1.00808	0.210899	-0.260704	1.14156	1.369	-0.091885	1.07429	1.3785	-0.111969	1.06488	1.30709	-0.0884962
58	1.18	1.22038	1.52019	-0.340122	1.31963	1.423	-0.285352	1.31237	1.48366	-0.497901	1.25834	0.982823	-0.430372	0.89739	0.126193	-0.340575	1.42434	1.19449	-0.475125	1.28275	1.16577	-0.578347	1.43063	1.12595	-0.497081	1.19777	1.17578	-0.602044	1.1584	1.16358	-0.517108	1.10495	0.0563315	-0.391985	1.08356	1.03799	-0.367051	1.1567	0.311191	-0.370093	1.10151	0.269304	-0.413962	1.07213	0.201218	-0.353051	1.19349	0.838428	-0.500319	1.25866	0.709198	-0.477311	1.18745	0.590035	-0.461907	1.13128	0.0686311	-0.302102	1.2608	1.36186	-0.571943	1.1755	1.31468	-0.564116	1.21348	1.24166	-0.587967	1.24057	1.48277	-0.15591	1.22879	0.976774	-0.176384	0.931774	0.407021	-0.26742	1.21653	1.12599	-0.135486	1.07687	1.21183	-0.0810199	1.16774	1.07697	-0.114938	0.999942	1.25877	-0.080424	0.982946	1.26355	-0.171869	1.01781	0.209246	-0.184292	1.06931	1.0302	-0.27523	1.24971	0.408467	-0.240789	1.1372	0.406863	-0.20048	1.08369	0.352355	-0.259636	1.2212	0.810314	-0.134077	1.30364	0.739045	-0.144486	1.30504	0.601094	-0.163903	1.04595	0.200433	-0.258784	1.13386	1.37898	-0.0930524	1.06768	1.38872	-0.116842	1.0561	1.31853	-0.0912944
59	1.19	1.21893	1.52739	-0.339353	1.31785	1.43115	-0.283389	1.31282	1.4925	-0.495828	1.25777	0.989937	-0.431217	0.870961	0.134106	-0.342	1.42694	1.21296	-0.467676	1.28939	1.17587	-0.573411	1.43622	1.14405	-0.486683	1.20494	1.18227	-0.599553	1.16421	1.17084	-0.515952	1.07525	0.0565489	-0.391845	1.08464	1.0438	-0.368372	1.13105	0.314859	-0.369565	1.07566	0.273671	-0.413683	1.04573	0.205545	-0.353125	1.19084	0.841544	-0.499509	1.2494	0.709226	-0.47449	1.17118	0.593842	-0.460559	1.10117	0.0685896	-0.301461	1.26337	1.37031	-0.570245	1.17903	1.32141	-0.565289	1.21942	1.24872	-0.586439	1.23672	1.4904	-0.155178	1.22918	0.984428	-0.177019	0.951735	0.385316	-0.271739	1.2113	1.14239	-0.134308	1.06876	1.22556	-0.0824304	1.16305	1.09268	-0.11431	0.99151	1.27166	-0.0841015	0.977156	1.27537	-0.175965	1.05479	0.197963	-0.183924	1.07011	1.03719	-0.276004	1.26916	0.413626	-0.240857	1.15585	0.404011	-0.201762	1.10791	0.343943	-0.260088	1.22335	0.821007	-0.133139	1.30745	0.752293	-0.144702	1.31321	0.614535	-0.163891	1.08474	0.190561	-0.257764	1.1276	1.38919	-0.0940804	1.06257	1.39945	-0.121262	1.04862	1.33076	-0.0940212
60	1.2	1.21754	1.53519	-0.338289	1.3163	1.43987	-0.281366	1.31299	1.50198	-0.493564	1.2579	0.997926	-0.432265	0.845865	0.143765	-0.343347	1.42833	1.2319	-0.460597	1.29552	1.18677	-0.569013	1.44055	1.16285	-0.476698	1.21195	1.18969	-0.597757	1.16934	1.17896	-0.515667	1.04577	0.0568034	-0.391738	1.08607	1.04996	-0.369769	1.10601	0.320123	-0.369563	1.05038	0.279511	-0.413691	1.02008	0.211323	-0.353388	1.18753	0.845199	-0.498668	1.2401	0.710732	-0.47167	1.15568	0.598903	-0.459512	1.07125	0.0686108	-0.30113	1.26614	1.37951	-0.568618	1.18296	1.32905	-0.5672	1.22539	1.25665	-0.585366	1.23355	1.49848	-0.154332	1.23017	0.993022	-0.177953	0.973489	0.362542	-0.275567	1.20701	1.15907	-0.133311	1.06186	1.23972	-0.0840184	1.15929	1.10863	-0.114211	0.984409	1.28498	-0.0875857	0.972504	1.28775	-0.179808	1.0927	0.186679	-0.184524	1.07142	1.04472	-0.276816	1.28761	0.418944	-0.241045	1.17451	0.400153	-0.203011	1.13242	0.335125	-0.261056	1.22554	0.832037	-0.132459	1.31081	0.765486	-0.145268	1.3203	0.627994	-0.163814	1.12425	0.181442	-0.257952	1.12264	1.39946	-0.0948754	1.05886	1.41056	-0.124976	1.04255	1.34343	-0.0965032
61	1.21	1.21618	1.54329	-0.336987	1.31495	1.44881	-0.279401	1.31294	1.51177	-0.491094	1.25861	1.0064	-0.433615	0.822311	0.154923	-0.344639	1.42862	1.25086	-0.45395	1.30117	1.19838	-0.565252	1.44372	1.1819	-0.467458	1.21871	1.19798	-0.596683	1.17321	1.18784	-0.51591	1.01658	0.0570746	-0.391695	1.08793	1.05649	-0.371277	1.08193	0.326882	-0.370028	1.02599	0.286764	-0.414077	0.995444	0.218421	-0.353933	1.18414	0.849431	-0.497809	1.23109	0.713583	-0.468964	1.14088	0.605193	-0.458758	1.04172	0.0686646	-0.301227	1.26927	1.38924	-0.567098	1.18734	1.3376	-0.569235	1.23124	1.26543	-0.584739	1.23092	1.50674	-0.153414	1.23162	1.00222	-0.179289	0.997107	0.339152	-0.278583	1.20361	1.17577	-0.13241	1.05614	1.254	-0.0856921	1.15646	1.12445	-0.11458	0.97856	1.29832	-0.0907679	0.968941	1.30048	-0.183451	1.13164	0.175496	-0.186167	1.07298	1.05265	-0.277714	1.30507	0.424022	-0.241636	1.19337	0.395265	-0.204184	1.15766	0.326229	-0.262727	1.22774	0.843081	-0.132056	1.31381	0.778343	-0.145997	1.32615	0.641003	-0.16381	1.16434	0.173227	-0.259458	1.11873	1.40971	-0.0953977	1.05625	1.4219	-0.127844	1.03782	1.35609	-0.0985833
62	1.22	1.21486	1.55143	-0.335537	1.31375	1.4577	-0.277568	1.3128	1.5217	-0.4885	1.25958	1.01492	-0.435213	0.800456	0.167314	-0.34592	1.42799	1.26941	-0.44779	1.30637	1.21054	-0.562225	1.44589	1.20074	-0.459123	1.22517	1.20707	-0.596359	1.17604	1.19733	-0.516737	0.98778	0.0573881	-0.391777	1.09018	1.06329	-0.372907	1.05905	0.334918	-0.370741	1.00279	0.295271	-0.414829	0.972135	0.226588	-0.35483	1.18127	0.854073	-0.497046	1.22261	0.717199	-0.466513	1.12665	0.612524	-0.458232	1.01277	0.0686997	-0.301694	1.27277	1.3993	-0.565696	1.19204	1.34691	-0.570928	1.23684	1.27501	-0.584585	1.22874	1.51492	-0.15246	1.23332	1.01149	-0.180877	1.02258	0.315471	-0.280669	1.20107	1.19219	-0.131536	1.0515	1.26798	-0.0872613	1.15454	1.13986	-0.115292	0.973794	1.31123	-0.0935339	0.966269	1.31325	-0.186817	1.17166	0.164596	-0.188799	1.0747	1.06082	-0.278962	1.32159	0.428502	-0.242603	1.2125	0.389485	-0.205254	1.18375	0.317458	-0.264809	1.22992	0.853948	-0.131881	1.31653	0.79062	-0.146667	1.3306	0.653072	-0.164103	1.20492	0.166102	-0.262134	1.11563	1.41987	-0.0956716	1.05439	1.43321	-0.129856	1.03421	1.3683	-0.100161
63	1.23	1.21359	1.55936	-0.334033	1.31271	1.4663	-0.275865	1.31272	1.53174	-0.485794	1.2606	1.02306	-0.436903	0.780429	0.18075	-0.347147	1.42663	1.28717	-0.442197	1.31113	1.22301	-0.559995	1.44717	1.21896	-0.45164	1.2313	1.21685	-0.596799	1.17862	1.20723	-0.518456	0.959402	0.0579004	-0.39203	1.09266	1.07009	-0.374557	1.03747	0.343948	-0.371536	0.980961	0.304835	-0.415853	0.950426	0.235561	-0.356064	1.17921	0.858828	-0.49653	1.21466	0.721065	-0.464439	1.11306	0.620555	-0.457874	0.984483	0.068754	-0.302379	1.27644	1.40961	-0.564384	1.19673	1.35672	-0.572132	1.24209	1.28531	-0.58494	1.227	1.52284	-0.151494	1.23512	1.02035	-0.182515	1.04985	0.291631	-0.282082	1.19927	1.20808	-0.130659	1.04781	1.28128	-0.0885705	1.15349	1.15468	-0.116204	0.969938	1.32334	-0.0957841	0.964174	1.32572	-0.189712	1.21266	0.154335	-0.19221	1.07661	1.06899	-0.280751	1.33717	0.432226	-0.243539	1.23179	0.382998	-0.206231	1.21041	0.308841	-0.266798	1.232	0.864562	-0.131885	1.3189	0.802052	-0.147179	1.33353	0.663844	-0.164892	1.24588	0.160331	-0.265582	1.11319	1.42986	-0.0957444	1.053	1.44424	-0.131077	1.03149	1.37977	-0.101192
64	1.24	1.21245	1.56688	-0.332526	1.31184	1.4744	-0.274273	1.3127	1.54175	-0.482909	1.26164	1.03047	-0.438631	0.76236	0.195122	-0.3482	1.4247	1.30386	-0.437213	1.31547	1.23554	-0.558544	1.44767	1.23622	-0.444822	1.23701	1.22715	-0.597942	1.18157	1.21725	-0.521204	0.93152	0.0589188	-0.392457	1.09513	1.07659	-0.376051	1.01733	0.353714	-0.372397	0.960599	0.315249	-0.417027	0.930423	0.245155	-0.357521	1.1778	0.863477	-0.496323	1.20716	0.725026	-0.462743	1.10039	0.6289	-0.457645	0.956958	0.0690892	-0.303153	1.27997	1.42007	-0.563143	1.20094	1.36682	-0.572917	1.2469	1.29615	-0.585778	1.22574	1.53032	-0.15054	1.23696	1.02844	-0.184169	1.07884	0.267678	-0.283351	1.19814	1.22318	-0.129803	1.04497	1.29361	-0.0895453	1.15322	1.16874	-0.117168	0.966871	1.3344	-0.0974381	0.962404	1.3375	-0.191953	1.25442	0.145281	-0.196038	1.0787	1.07691	-0.282867	1.35165	0.435158	-0.244011	1.25101	0.375938	-0.207151	1.23718	0.300372	-0.268432	1.23391	0.874795	-0.132086	1.32081	0.812265	-0.14768	1.33483	0.67309	-0.166265	1.28702	0.156254	-0.269281	1.11139	1.43949	-0.0956374	1.05198	1.45473	-0.131584	1.0295	1.39033	-0.101667
65	1.25	1.21148	1.57375	-0.331017	1.31121	1.48179	-0.272782	1.31263	1.55141	-0.479834	1.2627	1.03692	-0.440454	0.746372	0.21034	-0.348981	1.42234	1.31927	-0.432808	1.31935	1.24779	-0.557736	1.44747	1.25224	-0.438557	1.24222	1.23771	-0.599626	1.18482	1.22706	-0.524719	0.904273	0.0607831	-0.392994	1.09742	1.08258	-0.377278	0.998793	0.364004	-0.373411	0.94175	0.326267	-0.41826	0.912111	0.255236	-0.359071	1.1767	0.867998	-0.496355	1.20014	0.729182	-0.461284	1.08895	0.637247	-0.457522	0.930326	0.0701508	-0.303957	1.28304	1.43046	-0.562024	1.20427	1.37706	-0.573348	1.25116	1.30727	-0.586992	1.22501	1.53715	-0.149621	1.23882	1.03557	-0.185926	1.10942	0.243788	-0.284948	1.19755	1.23725	-0.129025	1.04294	1.30482	-0.0901546	1.15363	1.18187	-0.118034	0.964532	1.34428	-0.0984347	0.960893	1.34831	-0.193435	1.29652	0.138078	-0.199807	1.08083	1.08428	-0.284767	1.36478	0.437261	-0.243941	1.26996	0.368362	-0.208054	1.26376	0.292139	-0.269831	1.23556	0.884257	-0.132558	1.32207	0.820795	-0.148493	1.33436	0.680543	-0.168222	1.32796	0.154147	-0.272741	1.11027	1.44846	-0.0953207	1.05136	1.46446	-0.13146	1.02813	1.3999	-0.101579
66	1.26	1.21066	1.57984	-0.329464	1.31086	1.48831	-0.271381	1.31232	1.56035	-0.476658	1.26375	1.04232	-0.442371	0.732513	0.226244	-0.349495	1.41965	1.33323	-0.4289	1.32268	1.25947	-0.557346	1.44662	1.26675	-0.432936	1.24677	1.24819	-0.601632	1.18775	1.23643	-0.528507	0.877812	0.0636547	-0.393521	1.0995	1.08802	-0.37827	0.982062	0.374567	-0.374674	0.924476	0.3376	-0.419523	0.895446	0.265626	-0.360645	1.17574	0.872474	-0.496558	1.19369	0.733576	-0.459916	1.07893	0.645423	-0.4575	0.90483	0.0722246	-0.304801	1.28548	1.44043	-0.561161	1.20663	1.38723	-0.573436	1.2548	1.31834	-0.588461	1.22485	1.54316	-0.14872	1.24064	1.04167	-0.187793	1.14141	0.220393	-0.286983	1.19748	1.2501	-0.128382	1.04168	1.31485	-0.0903685	1.15464	1.19384	-0.118654	0.962899	1.35296	-0.0987289	0.959705	1.35792	-0.194102	1.33834	0.133212	-0.203048	1.08286	1.09089	-0.286077	1.37632	0.438463	-0.243658	1.28851	0.360323	-0.208964	1.29001	0.28427	-0.271209	1.23681	0.892265	-0.133344	1.32245	0.827215	-0.14982	1.33196	0.685813	-0.170669	1.36815	0.154061	-0.275615	1.10984	1.45641	-0.0947145	1.0513	1.47318	-0.130816	1.02737	1.40846	-0.100924
